<svg xmlns="http://www.w3.org/2000/svg" width="1080" height="1920" viewBox="0 0 1080 1920">
  <defs>
    <linearGradient id="page" x1="0" y1="0" x2="1" y2="1">
      <stop offset="0" stop-color="#f9fcff"/>
      <stop offset="0.55" stop-color="#edf8ff"/>
      <stop offset="1" stop-color="#f7fbfd"/>
    </linearGradient>
    <linearGradient id="header" x1="0" y1="0" x2="1" y2="1">
      <stop offset="0" stop-color="#031525"/>
      <stop offset="0.55" stop-color="#064c75"/>
      <stop offset="1" stop-color="#087cbc"/>
    </linearGradient>
    <linearGradient id="signature" x1="0" y1="0" x2="1" y2="1">
      <stop offset="0" stop-color="#075f94"/>
      <stop offset="0.52" stop-color="#00a2ed"/>
      <stop offset="1" stop-color="#0876af"/>
    </linearGradient>
    <linearGradient id="gold" x1="0" y1="0" x2="1" y2="1">
      <stop offset="0" stop-color="#fff2b6"/>
      <stop offset="0.55" stop-color="#f4cc5c"/>
      <stop offset="1" stop-color="#e6b638"/>
    </linearGradient>
    <filter id="shadow" x="-20%" y="-20%" width="140%" height="150%">
      <feDropShadow dx="0" dy="18" stdDeviation="18" flood-color="#07517d" flood-opacity="0.15"/>
    </filter>
    <filter id="blueShadow" x="-20%" y="-20%" width="140%" height="150%">
      <feDropShadow dx="0" dy="24" stdDeviation="22" flood-color="#005f91" flood-opacity="0.32"/>
    </filter>
    <style>
      text { font-family: "Helvetica Neue", Arial, sans-serif; }
      .caps { font-weight: 800; letter-spacing: 2.4px; }
      .title { font-weight: 800; letter-spacing: -1.4px; }
      .muted { fill: #6f8094; }
      .navy { fill: #111821; }
      .blue { fill: #087cbc; }
      .price { font-weight: 850; letter-spacing: -1.8px; }
    </style>
  </defs>

  <rect width="1080" height="1920" fill="url(#page)"/>
  <rect width="1080" height="330" fill="url(#header)"/>
  <circle cx="930" cy="-10" r="230" fill="#00a9ff" opacity="0.12"/>
  <circle cx="90" cy="300" r="210" fill="#38bdf8" opacity="0.08"/>

  <!-- Brand -->
  <rect x="58" y="50" width="72" height="72" rx="20" fill="#ffffff"/>
  <g transform="translate(75 61) scale(.105)">
    <path d="M124.811 0H167.497C175.229 0 181.497 6.268 181.497 14V330.5C181.497 338.232 175.229 344.5 167.497 344.5H147C139.268 344.5 133 350.768 133 358.5V452.5C133 460.232 126.732 466.5 119 466.5H80.5C72.768 466.5 66.5 460.232 66.5 452.5V173.5C66.5 165.768 60.232 159.5 52.5 159.5H14C6.268 159.5 0 153.232 0 145.5V90.9368C0 84.9856 3.77492 79.705 9.35295 77.6308C54.701 60.7681 79.6605 43.1373 114.291 4.7168C116.978 1.73598 120.798 0 124.811 0Z" fill="#151515"/>
    <path d="M203 77.7891V137.061C203 143.136 207.935 148.009 213.991 148.498C240.605 150.647 262.994 160.638 281.5 176.5C320.5 212 341 263 311.5 318C286 363 262 375.5 226 382.5C197.613 386.663 183.838 386.494 169.06 382.506C161.645 380.504 154 385.694 154 393.374V455.559C154 461.634 158.937 466.559 165.012 466.559H194C270 466.559 298.5 452.5 344.5 409.5C386.584 365.574 392.641 330.524 398.5 293.558C417.905 180.529 329.525 70.7902 213.734 67.096C207.768 66.9056 203 71.8202 203 77.7891Z" fill="#00A9FF"/>
  </g>
  <text x="150" y="86" fill="#ffffff" font-size="34" font-weight="800">OneLink</text>
  <text x="150" y="112" fill="#9ddfff" font-size="12" class="caps">SMART BUSINESS PAGE</text>

  <rect x="744" y="58" width="276" height="48" rx="24" fill="url(#gold)" stroke="#f8dc88"/>
  <circle cx="772" cy="82" r="5" fill="#936000"/>
  <text x="792" y="88" fill="#634300" font-size="15" class="caps">LAUNCH OFFER</text>

  <text x="58" y="200" fill="#ffffff" font-size="52" class="title">Simple pricing.</text>
  <text x="58" y="256" fill="#ffffff" font-size="52" class="title">One powerful business page.</text>
  <text x="58" y="300" fill="#c7e9fb" font-size="20" font-weight="600">Pay once for setup. Choose 3, 6 or 12 months of Platform Care.</text>

  <!-- Essential -->
  <g filter="url(#shadow)">
    <rect x="48" y="352" width="984" height="414" rx="28" fill="#ffffff" stroke="#cce9f7" stroke-width="2"/>
  </g>
  <text x="76" y="390" class="caps" font-size="13" fill="#657486">EASY START</text>
  <text x="76" y="431" class="title navy" font-size="34">Essential</text>
  <text x="76" y="463" class="muted" font-size="17" font-weight="600">A professional digital presence for your business.</text>

  <rect x="76" y="492" width="286" height="226" rx="20" fill="#f8fcff" stroke="#d9eaf3"/>
  <text x="98" y="526" class="caps blue" font-size="9.5" letter-spacing="1.4">ONE-TIME DESIGN &amp; DEVELOPMENT</text>
  <text x="98" y="558" class="caps muted" font-size="10">REGULAR</text>
  <text x="168" y="560" class="muted" font-size="17" font-weight="800">₹5,999</text>
  <line x1="165" y1="554" x2="229" y2="562" stroke="#d3a231" stroke-width="3" stroke-linecap="round"/>
  <text x="96" y="620" class="price navy" font-size="48">₹3,999</text>
  <rect x="248" y="585" width="70" height="28" rx="14" fill="#eaf7ff" stroke="#bde7fb"/>
  <text x="264" y="604" class="caps blue" font-size="10">+ GST</text>
  <text x="98" y="674" class="muted" font-size="14" font-weight="600">Charged once for complete setup.</text>

  <text x="390" y="513" class="caps" font-size="14" fill="#334155">CHOOSE PLATFORM CARE</text>
  <text x="390" y="537" class="muted" font-size="13" font-weight="600">Hosting, support &amp; updates included.</text>
  <g>
    <rect x="390" y="558" width="184" height="112" rx="16" fill="#ffffff" stroke="#dce8ef" stroke-width="2"/>
    <text x="482" y="587" text-anchor="middle" class="caps" font-size="12" fill="#334155">3 MONTHS</text>
    <text x="482" y="612" text-anchor="middle" class="muted" font-size="14" font-weight="800">₹2,999</text>
    <line x1="454" y1="607" x2="510" y2="615" stroke="#d3a231" stroke-width="2.5"/>
    <text x="482" y="650" text-anchor="middle" class="price navy" font-size="23">₹1,999</text>

    <rect x="586" y="554" width="184" height="120" rx="16" fill="#f5fbff" stroke="#00a9ff" stroke-width="3"/>
    <text x="678" y="586" text-anchor="middle" class="caps" font-size="12" fill="#111821">6 MONTHS</text>
    <text x="678" y="612" text-anchor="middle" class="muted" font-size="14" font-weight="800">₹4,999</text>
    <line x1="650" y1="607" x2="706" y2="615" stroke="#d3a231" stroke-width="2.5"/>
    <text x="678" y="651" text-anchor="middle" class="price blue" font-size="24">₹3,499</text>

    <rect x="782" y="558" width="184" height="112" rx="16" fill="#ffffff" stroke="#dce8ef" stroke-width="2"/>
    <text x="874" y="587" text-anchor="middle" class="caps" font-size="12" fill="#334155">12 MONTHS</text>
    <text x="874" y="612" text-anchor="middle" class="muted" font-size="14" font-weight="800">₹7,999</text>
    <line x1="846" y1="607" x2="902" y2="615" stroke="#d3a231" stroke-width="2.5"/>
    <text x="874" y="650" text-anchor="middle" class="price navy" font-size="23">₹5,999</text>
  </g>
  <g font-size="16" font-weight="650" fill="#3b4b5e">
    <circle cx="402" cy="707" r="10" fill="#e7f6ff"/><text x="397" y="712" fill="#087cbc" font-size="12">✓</text><text x="422" y="712">Custom OneLink</text>
    <circle cx="600" cy="707" r="10" fill="#e7f6ff"/><text x="595" y="712" fill="#087cbc" font-size="12">✓</text><text x="620" y="712">Business details &amp; content</text>
    <circle cx="402" cy="741" r="10" fill="#e7f6ff"/><text x="397" y="746" fill="#087cbc" font-size="12">✓</text><text x="422" y="746">Call, WhatsApp, Maps &amp; Pay</text>
    <circle cx="710" cy="741" r="10" fill="#e7f6ff"/><text x="705" y="746" fill="#087cbc" font-size="12">✓</text><text x="730" y="746">QR, gallery &amp; social links</text>
  </g>

  <!-- Signature -->
  <g filter="url(#blueShadow)">
    <rect x="48" y="792" width="984" height="446" rx="30" fill="url(#signature)" stroke="#55c5ff" stroke-width="2"/>
  </g>
  <rect x="406" y="772" width="268" height="44" rx="22" fill="#06486f" stroke="#8bddff" stroke-width="2"/>
  <text x="540" y="800" text-anchor="middle" class="caps" font-size="13" fill="#ffffff">MOST POPULAR</text>
  <text x="76" y="850" class="title" font-size="36" fill="#ffffff">Signature</text>
  <text x="76" y="882" font-size="17" font-weight="600" fill="#d9f2ff">Turn visitors into enquiries, bookings and customers.</text>

  <rect x="76" y="910" width="286" height="230" rx="20" fill="#ffffff" stroke="#d4effc"/>
  <text x="98" y="944" class="caps blue" font-size="9.5" letter-spacing="1.4">ONE-TIME DESIGN &amp; DEVELOPMENT</text>
  <text x="98" y="976" class="caps muted" font-size="10">REGULAR</text>
  <text x="168" y="978" class="muted" font-size="17" font-weight="800">₹7,999</text>
  <line x1="165" y1="972" x2="229" y2="980" stroke="#d3a231" stroke-width="3" stroke-linecap="round"/>
  <text x="96" y="1038" class="price navy" font-size="48">₹4,999</text>
  <rect x="248" y="1003" width="70" height="28" rx="14" fill="#eaf7ff" stroke="#bde7fb"/>
  <text x="264" y="1022" class="caps blue" font-size="10">+ GST</text>
  <text x="98" y="1092" class="muted" font-size="14" font-weight="600">Charged once for complete setup.</text>

  <text x="390" y="930" class="caps" font-size="14" fill="#ffffff">CHOOSE PLATFORM CARE</text>
  <text x="390" y="954" font-size="13" font-weight="600" fill="#c8ebfb">Hosting, support &amp; updates included.</text>
  <g>
    <rect x="390" y="976" width="184" height="114" rx="16" fill="#ffffff" fill-opacity="0.10" stroke="#ffffff" stroke-opacity="0.20" stroke-width="2"/>
    <text x="482" y="1005" text-anchor="middle" class="caps" font-size="12" fill="#ffffff">3 MONTHS</text>
    <text x="482" y="1030" text-anchor="middle" font-size="14" font-weight="800" fill="#ffffff" opacity="0.65">₹4,999</text>
    <line x1="454" y1="1025" x2="510" y2="1033" stroke="#f4cf6a" stroke-width="2.5"/>
    <text x="482" y="1068" text-anchor="middle" class="price" fill="#ffffff" font-size="23">₹3,499</text>

    <rect x="586" y="972" width="184" height="122" rx="16" fill="#ffffff" stroke="#ffffff" stroke-width="3"/>
    <text x="678" y="1004" text-anchor="middle" class="caps" font-size="12" fill="#111821">6 MONTHS</text>
    <text x="678" y="1030" text-anchor="middle" class="muted" font-size="14" font-weight="800">₹7,999</text>
    <line x1="650" y1="1025" x2="706" y2="1033" stroke="#d3a231" stroke-width="2.5"/>
    <text x="678" y="1069" text-anchor="middle" class="price blue" font-size="24">₹5,999</text>

    <rect x="782" y="976" width="184" height="114" rx="16" fill="#ffffff" fill-opacity="0.10" stroke="#ffffff" stroke-opacity="0.20" stroke-width="2"/>
    <text x="874" y="1005" text-anchor="middle" class="caps" font-size="12" fill="#ffffff">12 MONTHS</text>
    <text x="874" y="1030" text-anchor="middle" font-size="14" font-weight="800" fill="#ffffff" opacity="0.65">₹14,999</text>
    <line x1="842" y1="1025" x2="906" y2="1033" stroke="#f4cf6a" stroke-width="2.5"/>
    <text x="874" y="1068" text-anchor="middle" class="price" fill="#ffffff" font-size="23">₹10,999</text>
  </g>
  <g font-size="16" font-weight="650" fill="#ffffff">
    <circle cx="402" cy="1132" r="10" fill="#ffffff" fill-opacity="0.18"/><text x="397" y="1137" fill="#ffffff" font-size="12">✓</text><text x="422" y="1137">Everything in Essential</text>
    <circle cx="642" cy="1132" r="10" fill="#ffffff" fill-opacity="0.18"/><text x="637" y="1137" fill="#ffffff" font-size="12">✓</text><text x="662" y="1137">Menu, services or portfolio</text>
    <circle cx="402" cy="1170" r="10" fill="#ffffff" fill-opacity="0.18"/><text x="397" y="1175" fill="#ffffff" font-size="12">✓</text><text x="422" y="1175">Bookings, enquiries &amp; orders</text>
    <circle cx="710" cy="1170" r="10" fill="#ffffff" fill-opacity="0.18"/><text x="705" y="1175" fill="#ffffff" font-size="12">✓</text><text x="730" y="1175">Reviews &amp; customer actions</text>
  </g>

  <!-- Elite -->
  <g filter="url(#shadow)">
    <rect x="48" y="1264" width="984" height="414" rx="28" fill="#ffffff" stroke="#bde5f7" stroke-width="2"/>
  </g>
  <text x="76" y="1302" class="caps blue" font-size="13">COMPLETE SOFTWARE</text>
  <text x="76" y="1343" class="title navy" font-size="34">Elite</text>
  <text x="76" y="1375" class="muted" font-size="17" font-weight="600">Manage customer actions from one powerful dashboard.</text>

  <rect x="76" y="1404" width="286" height="226" rx="20" fill="#f8fcff" stroke="#d9eaf3"/>
  <text x="98" y="1438" class="caps blue" font-size="9.5" letter-spacing="1.4">ONE-TIME DESIGN &amp; DEVELOPMENT</text>
  <text x="98" y="1470" class="caps muted" font-size="10">REGULAR</text>
  <text x="168" y="1472" class="muted" font-size="17" font-weight="800">₹14,999</text>
  <line x1="165" y1="1466" x2="240" y2="1474" stroke="#d3a231" stroke-width="3" stroke-linecap="round"/>
  <text x="96" y="1532" class="price navy" font-size="48">₹9,999</text>
  <rect x="248" y="1497" width="70" height="28" rx="14" fill="#eaf7ff" stroke="#bde7fb"/>
  <text x="264" y="1516" class="caps blue" font-size="10">+ GST</text>
  <text x="98" y="1586" class="muted" font-size="14" font-weight="600">Charged once for complete setup.</text>

  <text x="390" y="1425" class="caps" font-size="14" fill="#334155">CHOOSE PLATFORM CARE</text>
  <text x="390" y="1449" class="muted" font-size="13" font-weight="600">Hosting, support &amp; updates included.</text>
  <g>
    <rect x="390" y="1470" width="184" height="112" rx="16" fill="#ffffff" stroke="#dce8ef" stroke-width="2"/>
    <text x="482" y="1499" text-anchor="middle" class="caps" font-size="12" fill="#334155">3 MONTHS</text>
    <text x="482" y="1524" text-anchor="middle" class="muted" font-size="14" font-weight="800">₹7,999</text>
    <line x1="454" y1="1519" x2="510" y2="1527" stroke="#d3a231" stroke-width="2.5"/>
    <text x="482" y="1562" text-anchor="middle" class="price navy" font-size="23">₹5,999</text>

    <rect x="586" y="1466" width="184" height="120" rx="16" fill="#f5fbff" stroke="#00a9ff" stroke-width="3"/>
    <text x="678" y="1498" text-anchor="middle" class="caps" font-size="12" fill="#111821">6 MONTHS</text>
    <text x="678" y="1524" text-anchor="middle" class="muted" font-size="14" font-weight="800">₹12,999</text>
    <line x1="646" y1="1519" x2="710" y2="1527" stroke="#d3a231" stroke-width="2.5"/>
    <text x="678" y="1563" text-anchor="middle" class="price blue" font-size="24">₹9,999</text>

    <rect x="782" y="1470" width="184" height="112" rx="16" fill="#ffffff" stroke="#dce8ef" stroke-width="2"/>
    <text x="874" y="1499" text-anchor="middle" class="caps" font-size="12" fill="#334155">12 MONTHS</text>
    <text x="874" y="1524" text-anchor="middle" class="muted" font-size="14" font-weight="800">₹23,999</text>
    <line x1="842" y1="1519" x2="906" y2="1527" stroke="#d3a231" stroke-width="2.5"/>
    <text x="874" y="1562" text-anchor="middle" class="price navy" font-size="23">₹17,999</text>
  </g>
  <g font-size="16" font-weight="650" fill="#3b4b5e">
    <circle cx="402" cy="1619" r="10" fill="#e7f6ff"/><text x="397" y="1624" fill="#087cbc" font-size="12">✓</text><text x="422" y="1624">Everything in Signature</text>
    <circle cx="626" cy="1619" r="10" fill="#e7f6ff"/><text x="621" y="1624" fill="#087cbc" font-size="12">✓</text><text x="646" y="1624">Admin dashboard</text>
    <circle cx="402" cy="1653" r="10" fill="#e7f6ff"/><text x="397" y="1658" fill="#087cbc" font-size="12">✓</text><text x="422" y="1658">Bookings, orders &amp; leads</text>
    <circle cx="660" cy="1653" r="10" fill="#e7f6ff"/><text x="655" y="1658" fill="#087cbc" font-size="12">✓</text><text x="680" y="1658">Pricing &amp; availability control</text>
  </g>

  <!-- Footer CTA -->
  <rect x="48" y="1720" width="984" height="146" rx="28" fill="url(#header)"/>
  <text x="82" y="1768" fill="#9ddfff" class="caps" font-size="12">NOT SURE WHICH PLAN FITS?</text>
  <text x="82" y="1812" fill="#ffffff" class="title" font-size="31">Let’s build the right OneLink for your business.</text>
  <rect x="760" y="1750" width="238" height="82" rx="18" fill="#ffffff"/>
  <text x="879" y="1782" text-anchor="middle" class="caps blue" font-size="11">WHATSAPP US</text>
  <text x="879" y="1814" text-anchor="middle" class="title navy" font-size="23">+91 96221 21100</text>
  <text x="540" y="1892" text-anchor="middle" class="muted" font-size="15" font-weight="650">Setup is charged once · Platform Care renews by selected period · GST extra</text>
  <text x="540" y="1918" text-anchor="middle" class="caps blue" font-size="12">ONELINK.CARDS</text>
</svg>
